<svg xmlns="http://www.w3.org/2000/svg" xmlns:xlink="http://www.w3.org/1999/xlink" width="200" zoomAndPan="magnify" viewBox="0 0 150 74.999997" height="100" preserveAspectRatio="xMidYMid meet" version="1.2"><defs/><g id="4fe7f4d0aa"><g style="fill:#ff5757;fill-opacity:1;"><g transform="translate(18.433132, 37.180297)"><path style="stroke:none" d="M 0.390625 -1.765625 C 0.390625 -2.296875 0.429688 -2.773438 0.515625 -3.203125 C 0.597656 -3.628906 0.707031 -4.050781 0.84375 -4.46875 C 0.976562 -4.894531 1.117188 -5.375 1.265625 -5.90625 C 1.410156 -6.4375 1.550781 -7.0625 1.6875 -7.78125 C 1.832031 -8.507812 1.945312 -9.375 2.03125 -10.375 C 2.113281 -11.375 2.15625 -12.566406 2.15625 -13.953125 C 2.15625 -15.328125 2.113281 -16.515625 2.03125 -17.515625 C 1.945312 -18.523438 1.832031 -19.390625 1.6875 -20.109375 C 1.550781 -20.835938 1.410156 -21.460938 1.265625 -21.984375 C 1.117188 -22.515625 0.976562 -22.992188 0.84375 -23.421875 C 0.707031 -23.847656 0.597656 -24.273438 0.515625 -24.703125 C 0.429688 -25.140625 0.390625 -25.617188 0.390625 -26.140625 C 0.390625 -26.617188 0.5 -26.976562 0.71875 -27.21875 C 0.945312 -27.46875 1.222656 -27.640625 1.546875 -27.734375 C 1.878906 -27.828125 2.207031 -27.878906 2.53125 -27.890625 C 2.851562 -27.898438 3.117188 -27.90625 3.328125 -27.90625 L 12.03125 -27.90625 C 14.269531 -27.90625 16.160156 -27.566406 17.703125 -26.890625 C 19.242188 -26.222656 20.414062 -25.257812 21.21875 -24 C 22.019531 -22.738281 22.421875 -21.21875 22.421875 -19.4375 C 22.421875 -18.65625 22.304688 -17.898438 22.078125 -17.171875 C 21.847656 -16.441406 21.53125 -15.78125 21.125 -15.1875 C 20.71875 -14.601562 20.242188 -14.109375 19.703125 -13.703125 C 19.171875 -13.304688 18.601562 -13.050781 18 -12.9375 C 17.71875 -12.882812 17.550781 -12.769531 17.5 -12.59375 C 17.5 -12.582031 17.59375 -12.523438 17.78125 -12.421875 C 17.96875 -12.316406 18.1875 -12.15625 18.4375 -11.9375 C 18.695312 -11.71875 18.925781 -11.425781 19.125 -11.0625 C 19.351562 -10.632812 19.601562 -10.125 19.875 -9.53125 C 20.144531 -8.945312 20.410156 -8.332031 20.671875 -7.6875 C 20.941406 -7.039062 21.191406 -6.414062 21.421875 -5.8125 C 21.660156 -5.21875 21.859375 -4.695312 22.015625 -4.25 C 22.191406 -3.726562 22.363281 -3.328125 22.53125 -3.046875 C 22.695312 -2.773438 22.84375 -2.5625 22.96875 -2.40625 C 23.09375 -2.25 23.1875 -2.09375 23.25 -1.9375 C 23.320312 -1.78125 23.359375 -1.5625 23.359375 -1.28125 C 23.359375 -0.90625 23.195312 -0.597656 22.875 -0.359375 C 22.550781 -0.117188 22.132812 0 21.625 0 L 14.375 0 C 14.050781 0 13.75 -0.0664062 13.46875 -0.203125 C 13.195312 -0.335938 13.03125 -0.566406 12.96875 -0.890625 C 12.894531 -1.242188 12.882812 -1.550781 12.9375 -1.8125 C 12.988281 -2.070312 13.054688 -2.332031 13.140625 -2.59375 C 13.222656 -2.863281 13.265625 -3.175781 13.265625 -3.53125 C 13.265625 -3.875 13.207031 -4.328125 13.09375 -4.890625 C 12.988281 -5.460938 12.84375 -6.066406 12.65625 -6.703125 C 12.46875 -7.335938 12.25 -7.9375 12 -8.5 C 11.757812 -9.0625 11.5 -9.519531 11.21875 -9.875 C 10.9375 -10.226562 10.648438 -10.40625 10.359375 -10.40625 C 10.117188 -10.40625 9.945312 -10.328125 9.84375 -10.171875 C 9.75 -10.023438 9.703125 -9.863281 9.703125 -9.6875 C 9.703125 -8.894531 9.78125 -8.148438 9.9375 -7.453125 C 10.09375 -6.753906 10.273438 -6.085938 10.484375 -5.453125 C 10.703125 -4.828125 10.890625 -4.207031 11.046875 -3.59375 C 11.203125 -2.988281 11.28125 -2.378906 11.28125 -1.765625 C 11.28125 -1.285156 11.164062 -0.921875 10.9375 -0.671875 C 10.707031 -0.429688 10.425781 -0.257812 10.09375 -0.15625 C 9.769531 -0.0625 9.445312 -0.0078125 9.125 0 C 8.800781 0 8.535156 0 8.328125 0 L 3.328125 0 C 3.117188 0 2.851562 0 2.53125 0 C 2.207031 -0.0078125 1.878906 -0.0625 1.546875 -0.15625 C 1.222656 -0.257812 0.945312 -0.429688 0.71875 -0.671875 C 0.5 -0.921875 0.390625 -1.285156 0.390625 -1.765625 Z M 9.71875 -18.234375 C 9.71875 -17.828125 9.878906 -17.5625 10.203125 -17.4375 C 10.523438 -17.3125 10.898438 -17.238281 11.328125 -17.21875 C 12.066406 -17.207031 12.664062 -17.289062 13.125 -17.46875 C 13.582031 -17.644531 13.929688 -17.867188 14.171875 -18.140625 C 14.421875 -18.410156 14.59375 -18.6875 14.6875 -18.96875 C 14.78125 -19.257812 14.828125 -19.523438 14.828125 -19.765625 C 14.828125 -19.984375 14.78125 -20.226562 14.6875 -20.5 C 14.59375 -20.78125 14.421875 -21.050781 14.171875 -21.3125 C 13.929688 -21.570312 13.582031 -21.789062 13.125 -21.96875 C 12.664062 -22.15625 12.066406 -22.265625 11.328125 -22.296875 C 10.898438 -22.328125 10.523438 -22.265625 10.203125 -22.109375 C 9.878906 -21.960938 9.71875 -21.691406 9.71875 -21.296875 Z M 9.71875 -18.234375 "/></g></g><g style="fill:#ff5757;fill-opacity:1;"><g transform="translate(40.39178, 37.180297)"><path style="stroke:none" d="M 0.484375 -9.6875 C 0.484375 -10.914062 0.691406 -12.125 1.109375 -13.3125 C 1.535156 -14.5 2.175781 -15.566406 3.03125 -16.515625 C 3.894531 -17.472656 4.976562 -18.238281 6.28125 -18.8125 C 7.59375 -19.382812 9.148438 -19.671875 10.953125 -19.671875 C 11.941406 -19.671875 12.894531 -19.539062 13.8125 -19.28125 C 14.726562 -19.03125 15.546875 -18.648438 16.265625 -18.140625 C 16.984375 -17.628906 17.550781 -16.992188 17.96875 -16.234375 C 18.382812 -15.472656 18.59375 -14.582031 18.59375 -13.5625 C 18.59375 -12.4375 18.421875 -11.457031 18.078125 -10.625 C 17.742188 -9.800781 17.285156 -9.101562 16.703125 -8.53125 C 16.128906 -7.96875 15.492188 -7.503906 14.796875 -7.140625 C 14.097656 -6.773438 13.394531 -6.484375 12.6875 -6.265625 C 12.019531 -6.054688 11.429688 -5.957031 10.921875 -5.96875 C 10.410156 -5.976562 10.003906 -5.984375 9.703125 -5.984375 C 9.535156 -5.984375 9.410156 -5.96875 9.328125 -5.9375 C 9.242188 -5.90625 9.203125 -5.832031 9.203125 -5.71875 C 9.203125 -5.507812 9.3125 -5.335938 9.53125 -5.203125 C 9.757812 -5.078125 10.03125 -4.984375 10.34375 -4.921875 C 10.664062 -4.867188 10.957031 -4.84375 11.21875 -4.84375 C 11.914062 -4.84375 12.503906 -4.925781 12.984375 -5.09375 C 13.460938 -5.269531 13.878906 -5.46875 14.234375 -5.6875 C 14.597656 -5.914062 14.945312 -6.113281 15.28125 -6.28125 C 15.625 -6.457031 15.992188 -6.546875 16.390625 -6.546875 C 16.828125 -6.546875 17.203125 -6.4375 17.515625 -6.21875 C 17.835938 -6.007812 18.097656 -5.738281 18.296875 -5.40625 C 18.492188 -5.082031 18.640625 -4.742188 18.734375 -4.390625 C 18.835938 -4.046875 18.890625 -3.734375 18.890625 -3.453125 C 18.890625 -2.867188 18.609375 -2.289062 18.046875 -1.71875 C 17.484375 -1.144531 16.617188 -0.664062 15.453125 -0.28125 C 14.285156 0.101562 12.785156 0.296875 10.953125 0.296875 C 9.242188 0.296875 7.738281 0.015625 6.4375 -0.546875 C 5.144531 -1.109375 4.054688 -1.867188 3.171875 -2.828125 C 2.285156 -3.785156 1.613281 -4.859375 1.15625 -6.046875 C 0.707031 -7.234375 0.484375 -8.445312 0.484375 -9.6875 Z M 7.96875 -11.734375 C 7.644531 -10.910156 7.523438 -10.242188 7.609375 -9.734375 C 7.703125 -9.222656 7.988281 -8.96875 8.46875 -8.96875 C 8.957031 -8.96875 9.445312 -9.222656 9.9375 -9.734375 C 10.4375 -10.242188 10.847656 -10.910156 11.171875 -11.734375 C 11.515625 -12.578125 11.632812 -13.253906 11.53125 -13.765625 C 11.4375 -14.273438 11.144531 -14.53125 10.65625 -14.53125 C 10.175781 -14.53125 9.691406 -14.273438 9.203125 -13.765625 C 8.710938 -13.253906 8.300781 -12.578125 7.96875 -11.734375 Z M 7.96875 -11.734375 "/></g></g><g style="fill:#ff5757;fill-opacity:1;"><g transform="translate(57.780427, 37.180297)"><path style="stroke:none" d="M 0.1875 -16.640625 C 0.1875 -17.097656 0.367188 -17.453125 0.734375 -17.703125 C 1.097656 -17.953125 1.554688 -18.15625 2.109375 -18.3125 C 2.660156 -18.476562 3.226562 -18.640625 3.8125 -18.796875 C 4.050781 -18.859375 4.347656 -18.9375 4.703125 -19.03125 C 5.054688 -19.132812 5.414062 -19.234375 5.78125 -19.328125 C 6.144531 -19.421875 6.472656 -19.5 6.765625 -19.5625 C 7.054688 -19.632812 7.269531 -19.671875 7.40625 -19.671875 C 7.757812 -19.671875 8.101562 -19.53125 8.4375 -19.25 C 8.769531 -18.96875 9.035156 -18.453125 9.234375 -17.703125 C 9.265625 -17.597656 9.304688 -17.515625 9.359375 -17.453125 C 9.421875 -17.390625 9.519531 -17.359375 9.65625 -17.359375 C 9.769531 -17.359375 9.976562 -17.472656 10.28125 -17.703125 C 10.59375 -17.941406 10.992188 -18.210938 11.484375 -18.515625 C 11.972656 -18.816406 12.550781 -19.082031 13.21875 -19.3125 C 13.894531 -19.550781 14.660156 -19.671875 15.515625 -19.671875 C 16.691406 -19.671875 17.640625 -19.40625 18.359375 -18.875 C 19.085938 -18.351562 19.625 -17.632812 19.96875 -16.71875 C 20.3125 -15.800781 20.484375 -14.75 20.484375 -13.5625 L 20.484375 -9.6875 C 20.484375 -8.789062 20.566406 -7.96875 20.734375 -7.21875 C 20.910156 -6.476562 21.117188 -5.785156 21.359375 -5.140625 C 21.597656 -4.503906 21.804688 -3.90625 21.984375 -3.34375 C 22.160156 -2.78125 22.25 -2.238281 22.25 -1.71875 C 22.25 -1.257812 22.132812 -0.910156 21.90625 -0.671875 C 21.675781 -0.429688 21.394531 -0.257812 21.0625 -0.15625 C 20.738281 -0.0625 20.414062 -0.0078125 20.09375 0 C 19.769531 0 19.503906 0 19.296875 0 L 15.671875 0 C 15.503906 0 15.273438 0 14.984375 0 C 14.691406 0 14.378906 -0.0195312 14.046875 -0.0625 C 13.710938 -0.113281 13.390625 -0.195312 13.078125 -0.3125 C 12.765625 -0.425781 12.507812 -0.59375 12.3125 -0.8125 C 12.125 -1.039062 12.03125 -1.34375 12.03125 -1.71875 C 12.03125 -2.582031 12.125 -3.453125 12.3125 -4.328125 C 12.5 -5.203125 12.6875 -6.082031 12.875 -6.96875 C 13.0625 -7.863281 13.140625 -8.769531 13.109375 -9.6875 C 13.097656 -10.082031 13.066406 -10.503906 13.015625 -10.953125 C 12.960938 -11.398438 12.875 -11.820312 12.75 -12.21875 C 12.625 -12.613281 12.4375 -12.9375 12.1875 -13.1875 C 11.9375 -13.4375 11.617188 -13.5625 11.234375 -13.5625 C 10.828125 -13.5625 10.5 -13.4375 10.25 -13.1875 C 10 -12.9375 9.816406 -12.613281 9.703125 -12.21875 C 9.585938 -11.820312 9.515625 -11.394531 9.484375 -10.9375 C 9.453125 -10.488281 9.4375 -10.070312 9.4375 -9.6875 C 9.4375 -8.9375 9.523438 -8.195312 9.703125 -7.46875 C 9.890625 -6.75 10.097656 -6.050781 10.328125 -5.375 C 10.554688 -4.707031 10.757812 -4.066406 10.9375 -3.453125 C 11.125 -2.835938 11.21875 -2.257812 11.21875 -1.71875 C 11.21875 -1.34375 11.117188 -1.039062 10.921875 -0.8125 C 10.734375 -0.59375 10.484375 -0.425781 10.171875 -0.3125 C 9.859375 -0.195312 9.535156 -0.113281 9.203125 -0.0625 C 8.867188 -0.0195312 8.554688 0 8.265625 0 C 7.972656 0 7.742188 0 7.578125 0 L 3.28125 0 C 3.070312 0 2.804688 0 2.484375 0 C 2.160156 -0.0078125 1.832031 -0.0625 1.5 -0.15625 C 1.164062 -0.257812 0.882812 -0.429688 0.65625 -0.671875 C 0.4375 -0.910156 0.328125 -1.257812 0.328125 -1.71875 C 0.328125 -2.238281 0.414062 -2.78125 0.59375 -3.34375 C 0.769531 -3.90625 0.972656 -4.503906 1.203125 -5.140625 C 1.441406 -5.785156 1.648438 -6.476562 1.828125 -7.21875 C 2.003906 -7.96875 2.09375 -8.789062 2.09375 -9.6875 C 2.09375 -10.539062 2.023438 -11.265625 1.890625 -11.859375 C 1.765625 -12.453125 1.609375 -12.960938 1.421875 -13.390625 C 1.234375 -13.816406 1.046875 -14.195312 0.859375 -14.53125 C 0.671875 -14.863281 0.507812 -15.191406 0.375 -15.515625 C 0.25 -15.847656 0.1875 -16.222656 0.1875 -16.640625 Z M 0.1875 -16.640625 "/></g></g><g style="fill:#ff5757;fill-opacity:1;"><g transform="translate(78.615937, 37.180297)"><path style="stroke:none" d="M 6.640625 0.296875 C 5.441406 0.296875 4.351562 0.0390625 3.375 -0.46875 C 2.40625 -0.976562 1.628906 -1.722656 1.046875 -2.703125 C 0.472656 -3.679688 0.1875 -4.859375 0.1875 -6.234375 C 0.1875 -7.148438 0.300781 -8.03125 0.53125 -8.875 C 0.769531 -9.71875 1.0625 -10.507812 1.40625 -11.25 C 1.757812 -12 2.109375 -12.695312 2.453125 -13.34375 C 2.796875 -13.988281 3.082031 -14.578125 3.3125 -15.109375 C 3.539062 -15.648438 3.65625 -16.132812 3.65625 -16.5625 C 3.65625 -16.894531 3.609375 -17.117188 3.515625 -17.234375 C 3.429688 -17.359375 3.300781 -17.421875 3.125 -17.421875 C 2.957031 -17.421875 2.75 -17.382812 2.5 -17.3125 C 2.25 -17.25 1.984375 -17.21875 1.703125 -17.21875 C 1.160156 -17.21875 0.773438 -17.332031 0.546875 -17.5625 C 0.328125 -17.789062 0.21875 -18.101562 0.21875 -18.5 C 0.21875 -18.988281 0.523438 -19.578125 1.140625 -20.265625 C 1.765625 -20.953125 2.566406 -21.75 3.546875 -22.65625 C 4.128906 -23.195312 4.6875 -23.726562 5.21875 -24.25 C 5.757812 -24.78125 6.238281 -25.21875 6.65625 -25.5625 C 7.070312 -25.914062 7.390625 -26.09375 7.609375 -26.09375 C 7.867188 -26.09375 8.0625 -26.003906 8.1875 -25.828125 C 8.3125 -25.660156 8.394531 -25.445312 8.4375 -25.1875 C 8.476562 -24.925781 8.5 -24.679688 8.5 -24.453125 L 8.5 -19.375 L 9.296875 -19.375 C 9.609375 -19.375 9.859375 -19.273438 10.046875 -19.078125 C 10.242188 -18.890625 10.34375 -18.640625 10.34375 -18.328125 L 10.34375 -18.265625 C 10.34375 -17.960938 10.242188 -17.710938 10.046875 -17.515625 C 9.859375 -17.316406 9.609375 -17.21875 9.296875 -17.21875 L 8.5 -17.21875 L 8.5 -9.6875 C 8.5 -8.5 8.585938 -7.53125 8.765625 -6.78125 C 8.953125 -6.03125 9.179688 -5.429688 9.453125 -4.984375 C 9.722656 -4.546875 9.992188 -4.1875 10.265625 -3.90625 C 10.535156 -3.632812 10.757812 -3.394531 10.9375 -3.1875 C 11.125 -2.976562 11.21875 -2.71875 11.21875 -2.40625 C 11.21875 -1.976562 11.078125 -1.59375 10.796875 -1.25 C 10.523438 -0.914062 10.160156 -0.632812 9.703125 -0.40625 C 9.253906 -0.175781 8.757812 -0.00390625 8.21875 0.109375 C 7.6875 0.234375 7.160156 0.296875 6.640625 0.296875 Z M 6.640625 0.296875 "/></g></g><g style="fill:#ff5757;fill-opacity:1;"><g transform="translate(9.565983, 62.462079)"><path style="stroke:none" d="M 0.25 -21.4375 C 0.25 -22.019531 0.476562 -22.472656 0.9375 -22.796875 C 1.40625 -23.117188 2 -23.382812 2.71875 -23.59375 C 3.4375 -23.800781 4.171875 -24.003906 4.921875 -24.203125 C 5.210938 -24.285156 5.585938 -24.390625 6.046875 -24.515625 C 6.503906 -24.640625 6.96875 -24.765625 7.4375 -24.890625 C 7.914062 -25.015625 8.34375 -25.117188 8.71875 -25.203125 C 9.09375 -25.285156 9.363281 -25.328125 9.53125 -25.328125 C 10 -25.328125 10.441406 -25.144531 10.859375 -24.78125 C 11.285156 -24.425781 11.632812 -23.769531 11.90625 -22.8125 C 11.9375 -22.675781 11.988281 -22.566406 12.0625 -22.484375 C 12.132812 -22.398438 12.253906 -22.359375 12.421875 -22.359375 C 12.578125 -22.359375 12.851562 -22.503906 13.25 -22.796875 C 13.644531 -23.097656 14.160156 -23.441406 14.796875 -23.828125 C 15.429688 -24.222656 16.179688 -24.570312 17.046875 -24.875 C 17.910156 -25.175781 18.890625 -25.328125 19.984375 -25.328125 C 21.484375 -25.328125 22.703125 -24.988281 23.640625 -24.3125 C 24.578125 -23.644531 25.265625 -22.726562 25.703125 -21.5625 C 25.898438 -21.820312 26.265625 -22.160156 26.796875 -22.578125 C 27.328125 -22.992188 27.976562 -23.414062 28.75 -23.84375 C 29.53125 -24.269531 30.382812 -24.625 31.3125 -24.90625 C 32.25 -25.1875 33.207031 -25.328125 34.1875 -25.328125 C 35.695312 -25.328125 36.914062 -24.988281 37.84375 -24.3125 C 38.78125 -23.644531 39.46875 -22.71875 39.90625 -21.53125 C 40.351562 -20.351562 40.578125 -19 40.578125 -17.46875 L 40.578125 -12.484375 C 40.578125 -11.328125 40.6875 -10.265625 40.90625 -9.296875 C 41.132812 -8.335938 41.398438 -7.445312 41.703125 -6.625 C 42.015625 -5.800781 42.28125 -5.023438 42.5 -4.296875 C 42.726562 -3.578125 42.84375 -2.882812 42.84375 -2.21875 C 42.84375 -1.625 42.695312 -1.171875 42.40625 -0.859375 C 42.113281 -0.554688 41.753906 -0.34375 41.328125 -0.21875 C 40.910156 -0.09375 40.492188 -0.0234375 40.078125 -0.015625 C 39.660156 -0.00390625 39.316406 0 39.046875 0 L 33.53125 0 C 33.164062 0 32.765625 -0.0234375 32.328125 -0.078125 C 31.890625 -0.140625 31.46875 -0.242188 31.0625 -0.390625 C 30.664062 -0.546875 30.335938 -0.769531 30.078125 -1.0625 C 29.816406 -1.351562 29.6875 -1.738281 29.6875 -2.21875 C 29.6875 -3.332031 29.804688 -4.453125 30.046875 -5.578125 C 30.296875 -6.703125 30.539062 -7.835938 30.78125 -8.984375 C 31.019531 -10.128906 31.125 -11.296875 31.09375 -12.484375 C 31.070312 -12.992188 31.023438 -13.535156 30.953125 -14.109375 C 30.890625 -14.679688 30.773438 -15.222656 30.609375 -15.734375 C 30.453125 -16.242188 30.210938 -16.660156 29.890625 -16.984375 C 29.578125 -17.304688 29.171875 -17.46875 28.671875 -17.46875 C 28.171875 -17.46875 27.765625 -17.304688 27.453125 -16.984375 C 27.148438 -16.660156 26.921875 -16.242188 26.765625 -15.734375 C 26.617188 -15.222656 26.515625 -14.679688 26.453125 -14.109375 C 26.398438 -13.535156 26.375 -12.992188 26.375 -12.484375 C 26.351562 -11.410156 26.457031 -10.390625 26.6875 -9.421875 C 26.925781 -8.460938 27.195312 -7.550781 27.5 -6.6875 C 27.800781 -5.820312 28.066406 -5.015625 28.296875 -4.265625 C 28.523438 -3.515625 28.640625 -2.832031 28.640625 -2.21875 C 28.640625 -1.664062 28.519531 -1.234375 28.28125 -0.921875 C 28.039062 -0.617188 27.726562 -0.40625 27.34375 -0.28125 C 26.96875 -0.15625 26.554688 -0.078125 26.109375 -0.046875 C 25.671875 -0.015625 25.253906 0 24.859375 0 L 19.34375 0 C 18.976562 0 18.570312 -0.0234375 18.125 -0.078125 C 17.6875 -0.140625 17.265625 -0.242188 16.859375 -0.390625 C 16.460938 -0.546875 16.132812 -0.769531 15.875 -1.0625 C 15.625 -1.351562 15.5 -1.738281 15.5 -2.21875 C 15.5 -3.332031 15.617188 -4.453125 15.859375 -5.578125 C 16.097656 -6.703125 16.335938 -7.835938 16.578125 -8.984375 C 16.816406 -10.128906 16.921875 -11.296875 16.890625 -12.484375 C 16.878906 -12.992188 16.835938 -13.535156 16.765625 -14.109375 C 16.703125 -14.679688 16.585938 -15.222656 16.421875 -15.734375 C 16.253906 -16.242188 16.007812 -16.660156 15.6875 -16.984375 C 15.375 -17.304688 14.96875 -17.46875 14.46875 -17.46875 C 13.96875 -17.46875 13.5625 -17.304688 13.25 -16.984375 C 12.945312 -16.660156 12.71875 -16.242188 12.5625 -15.734375 C 12.40625 -15.222656 12.296875 -14.675781 12.234375 -14.09375 C 12.179688 -13.507812 12.15625 -12.972656 12.15625 -12.484375 C 12.15625 -11.515625 12.265625 -10.570312 12.484375 -9.65625 C 12.710938 -8.738281 12.976562 -7.851562 13.28125 -7 C 13.59375 -6.15625 13.863281 -5.332031 14.09375 -4.53125 C 14.332031 -3.738281 14.453125 -2.96875 14.453125 -2.21875 C 14.453125 -1.738281 14.320312 -1.351562 14.0625 -1.0625 C 13.800781 -0.769531 13.472656 -0.546875 13.078125 -0.390625 C 12.679688 -0.242188 12.257812 -0.140625 11.8125 -0.078125 C 11.375 -0.0234375 10.972656 0 10.609375 0 L 4.21875 0 C 3.945312 0 3.601562 -0.00390625 3.1875 -0.015625 C 2.769531 -0.0234375 2.347656 -0.09375 1.921875 -0.21875 C 1.503906 -0.34375 1.148438 -0.554688 0.859375 -0.859375 C 0.566406 -1.171875 0.421875 -1.625 0.421875 -2.21875 C 0.421875 -2.882812 0.53125 -3.578125 0.75 -4.296875 C 0.976562 -5.023438 1.242188 -5.800781 1.546875 -6.625 C 1.859375 -7.445312 2.125 -8.335938 2.34375 -9.296875 C 2.570312 -10.265625 2.6875 -11.328125 2.6875 -12.484375 C 2.6875 -13.578125 2.601562 -14.503906 2.4375 -15.265625 C 2.28125 -16.035156 2.078125 -16.691406 1.828125 -17.234375 C 1.585938 -17.785156 1.347656 -18.273438 1.109375 -18.703125 C 0.867188 -19.140625 0.664062 -19.570312 0.5 -20 C 0.332031 -20.425781 0.25 -20.90625 0.25 -21.4375 Z M 0.25 -21.4375 "/></g></g><g style="fill:#ff5757;fill-opacity:1;"><g transform="translate(50.605753, 62.462079)"><path style="stroke:none" d="M 0.625 -12.484375 C 0.625 -14.210938 0.816406 -15.734375 1.203125 -17.046875 C 1.597656 -18.359375 2.128906 -19.488281 2.796875 -20.4375 C 3.460938 -21.382812 4.203125 -22.171875 5.015625 -22.796875 C 5.828125 -23.421875 6.664062 -23.921875 7.53125 -24.296875 C 8.394531 -24.671875 9.226562 -24.9375 10.03125 -25.09375 C 10.832031 -25.25 11.53125 -25.328125 12.125 -25.328125 C 13.207031 -25.347656 14.066406 -25.320312 14.703125 -25.25 C 15.347656 -25.1875 15.878906 -25.117188 16.296875 -25.046875 C 16.722656 -24.984375 17.144531 -24.953125 17.5625 -24.953125 C 18.425781 -24.953125 19.125 -24.984375 19.65625 -25.046875 C 20.195312 -25.117188 20.660156 -25.179688 21.046875 -25.234375 C 21.441406 -25.296875 21.828125 -25.328125 22.203125 -25.328125 C 22.472656 -25.328125 22.785156 -25.289062 23.140625 -25.21875 C 23.503906 -25.15625 23.859375 -25.023438 24.203125 -24.828125 C 24.554688 -24.628906 24.847656 -24.347656 25.078125 -23.984375 C 25.304688 -23.617188 25.421875 -23.132812 25.421875 -22.53125 C 25.421875 -21.945312 25.332031 -21.335938 25.15625 -20.703125 C 24.988281 -20.078125 24.796875 -19.378906 24.578125 -18.609375 C 24.359375 -17.847656 24.160156 -16.96875 23.984375 -15.96875 C 23.816406 -14.96875 23.734375 -13.804688 23.734375 -12.484375 C 23.734375 -11.328125 23.796875 -10.34375 23.921875 -9.53125 C 24.046875 -8.726562 24.203125 -8.03125 24.390625 -7.4375 C 24.578125 -6.851562 24.765625 -6.335938 24.953125 -5.890625 C 25.148438 -5.453125 25.3125 -5.035156 25.4375 -4.640625 C 25.5625 -4.242188 25.625 -3.820312 25.625 -3.375 C 25.625 -2.632812 25.34375 -1.984375 24.78125 -1.421875 C 24.21875 -0.859375 23.457031 -0.414062 22.5 -0.09375 C 21.550781 0.21875 20.488281 0.375 19.3125 0.375 C 18.800781 0.375 18.398438 0.296875 18.109375 0.140625 C 17.828125 -0.00390625 17.597656 -0.171875 17.421875 -0.359375 C 17.253906 -0.554688 17.066406 -0.726562 16.859375 -0.875 C 16.660156 -1.019531 16.394531 -1.09375 16.0625 -1.09375 C 15.695312 -1.09375 15.375 -1.019531 15.09375 -0.875 C 14.8125 -0.726562 14.488281 -0.554688 14.125 -0.359375 C 13.769531 -0.171875 13.328125 -0.00390625 12.796875 0.140625 C 12.265625 0.296875 11.566406 0.375 10.703125 0.375 C 9.328125 0.375 8.023438 0.0664062 6.796875 -0.546875 C 5.578125 -1.160156 4.503906 -2.03125 3.578125 -3.15625 C 2.660156 -4.289062 1.9375 -5.648438 1.40625 -7.234375 C 0.882812 -8.816406 0.625 -10.566406 0.625 -12.484375 Z M 12.328125 -18.734375 C 11.660156 -18.734375 11.125 -18.160156 10.71875 -17.015625 C 10.3125 -15.867188 10.109375 -14.359375 10.109375 -12.484375 C 10.109375 -10.617188 10.3125 -9.109375 10.71875 -7.953125 C 11.125 -6.804688 11.660156 -6.234375 12.328125 -6.234375 C 12.992188 -6.234375 13.53125 -6.804688 13.9375 -7.953125 C 14.34375 -9.109375 14.546875 -10.617188 14.546875 -12.484375 C 14.546875 -14.359375 14.34375 -15.867188 13.9375 -17.015625 C 13.53125 -18.160156 12.992188 -18.734375 12.328125 -18.734375 Z M 12.328125 -18.734375 "/></g></g><g style="fill:#ff5757;fill-opacity:1;"><g transform="translate(74.405999, 62.462079)"><path style="stroke:none" d="M 0.625 -12.484375 C 0.625 -14.242188 0.875 -15.816406 1.375 -17.203125 C 1.882812 -18.585938 2.582031 -19.789062 3.46875 -20.8125 C 4.363281 -21.84375 5.394531 -22.691406 6.5625 -23.359375 C 7.726562 -24.023438 8.972656 -24.519531 10.296875 -24.84375 C 11.617188 -25.164062 12.960938 -25.328125 14.328125 -25.328125 C 16.421875 -25.328125 18.265625 -25.007812 19.859375 -24.375 C 21.460938 -23.75 22.710938 -22.820312 23.609375 -21.59375 C 24.503906 -20.375 24.953125 -18.890625 24.953125 -17.140625 C 24.953125 -16.441406 24.84375 -15.75 24.625 -15.0625 C 24.40625 -14.382812 24.085938 -13.765625 23.671875 -13.203125 C 23.265625 -12.640625 22.75 -12.191406 22.125 -11.859375 C 21.5 -11.523438 20.78125 -11.359375 19.96875 -11.359375 C 18.75 -11.359375 17.8125 -11.585938 17.15625 -12.046875 C 16.507812 -12.515625 16.066406 -13.113281 15.828125 -13.84375 C 15.585938 -14.582031 15.46875 -15.34375 15.46875 -16.125 C 15.46875 -16.550781 15.445312 -16.957031 15.40625 -17.34375 C 15.363281 -17.738281 15.253906 -18.066406 15.078125 -18.328125 C 14.910156 -18.585938 14.617188 -18.71875 14.203125 -18.71875 C 13.597656 -18.71875 13.046875 -18.503906 12.546875 -18.078125 C 12.046875 -17.648438 11.617188 -17.109375 11.265625 -16.453125 C 10.910156 -15.796875 10.628906 -15.101562 10.421875 -14.375 C 10.222656 -13.65625 10.125 -13 10.125 -12.40625 C 10.125 -11.15625 10.273438 -10.128906 10.578125 -9.328125 C 10.890625 -8.535156 11.285156 -7.910156 11.765625 -7.453125 C 12.253906 -7.003906 12.785156 -6.6875 13.359375 -6.5 C 13.929688 -6.320312 14.476562 -6.234375 15 -6.234375 C 15.75 -6.234375 16.390625 -6.34375 16.921875 -6.5625 C 17.460938 -6.789062 17.953125 -7.046875 18.390625 -7.328125 C 18.828125 -7.617188 19.257812 -7.875 19.6875 -8.09375 C 20.125 -8.320312 20.597656 -8.4375 21.109375 -8.4375 C 21.671875 -8.4375 22.15625 -8.296875 22.5625 -8.015625 C 22.976562 -7.742188 23.3125 -7.394531 23.5625 -6.96875 C 23.820312 -6.550781 24.015625 -6.113281 24.140625 -5.65625 C 24.265625 -5.207031 24.328125 -4.800781 24.328125 -4.4375 C 24.328125 -3.6875 23.960938 -2.941406 23.234375 -2.203125 C 22.515625 -1.460938 21.398438 -0.847656 19.890625 -0.359375 C 18.390625 0.128906 16.457031 0.375 14.09375 0.375 C 11.90625 0.375 9.972656 0.015625 8.296875 -0.703125 C 6.628906 -1.429688 5.222656 -2.410156 4.078125 -3.640625 C 2.941406 -4.867188 2.082031 -6.25 1.5 -7.78125 C 0.914062 -9.3125 0.625 -10.878906 0.625 -12.484375 Z M 0.625 -12.484375 "/></g></g><g style="fill:#ff5757;fill-opacity:1;"><g transform="translate(97.931807, 62.462079)"><path style="stroke:none" d="M 2.515625 -18.46875 C 2.515625 -20.175781 2.398438 -21.75 2.171875 -23.1875 C 1.953125 -24.632812 1.6875 -25.972656 1.375 -27.203125 C 1.070312 -28.429688 0.804688 -29.582031 0.578125 -30.65625 C 0.359375 -31.726562 0.25 -32.75 0.25 -33.71875 C 0.25 -34.3125 0.394531 -34.757812 0.6875 -35.0625 C 0.976562 -35.375 1.332031 -35.59375 1.75 -35.71875 C 2.175781 -35.84375 2.597656 -35.910156 3.015625 -35.921875 C 3.429688 -35.929688 3.773438 -35.9375 4.046875 -35.9375 L 10.203125 -35.9375 C 10.472656 -35.9375 10.816406 -35.929688 11.234375 -35.921875 C 11.648438 -35.910156 12.066406 -35.84375 12.484375 -35.71875 C 12.910156 -35.59375 13.269531 -35.375 13.5625 -35.0625 C 13.851562 -34.757812 14 -34.3125 14 -33.71875 C 14 -32.800781 13.890625 -31.894531 13.671875 -31 C 13.453125 -30.113281 13.195312 -29.242188 12.90625 -28.390625 C 12.625 -27.546875 12.375 -26.71875 12.15625 -25.90625 C 11.9375 -25.101562 11.828125 -24.328125 11.828125 -23.578125 C 11.828125 -23.148438 11.832031 -22.867188 11.84375 -22.734375 C 11.851562 -22.597656 11.921875 -22.53125 12.046875 -22.53125 C 12.179688 -22.53125 12.445312 -22.671875 12.84375 -22.953125 C 13.25 -23.234375 13.796875 -23.554688 14.484375 -23.921875 C 15.171875 -24.296875 16.007812 -24.625 17 -24.90625 C 17.988281 -25.1875 19.132812 -25.328125 20.4375 -25.328125 C 21.945312 -25.328125 23.164062 -24.988281 24.09375 -24.3125 C 25.03125 -23.644531 25.71875 -22.71875 26.15625 -21.53125 C 26.601562 -20.351562 26.828125 -19 26.828125 -17.46875 L 26.828125 -10.984375 C 26.828125 -9.867188 26.9375 -8.890625 27.15625 -8.046875 C 27.382812 -7.203125 27.648438 -6.453125 27.953125 -5.796875 C 28.265625 -5.140625 28.53125 -4.523438 28.75 -3.953125 C 28.976562 -3.378906 29.09375 -2.800781 29.09375 -2.21875 C 29.09375 -1.625 28.945312 -1.171875 28.65625 -0.859375 C 28.363281 -0.554688 28.003906 -0.34375 27.578125 -0.21875 C 27.160156 -0.09375 26.742188 -0.0234375 26.328125 -0.015625 C 25.910156 -0.00390625 25.566406 0 25.296875 0 L 19.765625 0 C 19.546875 0 19.25 0 18.875 0 C 18.5 0 18.09375 -0.0234375 17.65625 -0.078125 C 17.226562 -0.140625 16.8125 -0.242188 16.40625 -0.390625 C 16.007812 -0.546875 15.6875 -0.769531 15.4375 -1.0625 C 15.195312 -1.351562 15.078125 -1.738281 15.078125 -2.21875 C 15.078125 -2.800781 15.1875 -3.378906 15.40625 -3.953125 C 15.632812 -4.523438 15.898438 -5.140625 16.203125 -5.796875 C 16.515625 -6.453125 16.78125 -7.203125 17 -8.046875 C 17.226562 -8.890625 17.34375 -9.867188 17.34375 -10.984375 L 17.34375 -14.140625 C 17.34375 -14.628906 17.25 -15.128906 17.0625 -15.640625 C 16.882812 -16.160156 16.597656 -16.59375 16.203125 -16.9375 C 15.816406 -17.289062 15.289062 -17.46875 14.625 -17.46875 C 13.9375 -17.46875 13.378906 -17.289062 12.953125 -16.9375 C 12.535156 -16.59375 12.226562 -16.160156 12.03125 -15.640625 C 11.84375 -15.128906 11.75 -14.628906 11.75 -14.140625 L 11.75 -10.984375 C 11.75 -9.867188 11.859375 -8.890625 12.078125 -8.046875 C 12.304688 -7.203125 12.570312 -6.453125 12.875 -5.796875 C 13.1875 -5.140625 13.457031 -4.523438 13.6875 -3.953125 C 13.914062 -3.378906 14.03125 -2.800781 14.03125 -2.21875 C 14.03125 -1.738281 13.90625 -1.351562 13.65625 -1.0625 C 13.40625 -0.769531 13.078125 -0.546875 12.671875 -0.390625 C 12.273438 -0.242188 11.859375 -0.140625 11.421875 -0.078125 C 10.992188 -0.0234375 10.59375 0 10.21875 0 C 9.84375 0 9.546875 0 9.328125 0 L 4.046875 0 C 3.773438 0 3.429688 -0.00390625 3.015625 -0.015625 C 2.597656 -0.0234375 2.175781 -0.09375 1.75 -0.21875 C 1.332031 -0.34375 0.976562 -0.554688 0.6875 -0.859375 C 0.394531 -1.171875 0.25 -1.625 0.25 -2.21875 C 0.25 -2.882812 0.300781 -3.445312 0.40625 -3.90625 C 0.519531 -4.375 0.660156 -4.84375 0.828125 -5.3125 C 1.003906 -5.78125 1.1875 -6.328125 1.375 -6.953125 C 1.570312 -7.585938 1.757812 -8.390625 1.9375 -9.359375 C 2.113281 -10.328125 2.253906 -11.546875 2.359375 -13.015625 C 2.460938 -14.484375 2.515625 -16.300781 2.515625 -18.46875 Z M 2.515625 -18.46875 "/></g></g><g style="fill:#ff5757;fill-opacity:1;"><g transform="translate(125.224867, 62.462079)"><path style="stroke:none" d="M 2.6875 -12.484375 C 2.6875 -13.578125 2.601562 -14.503906 2.4375 -15.265625 C 2.28125 -16.035156 2.078125 -16.691406 1.828125 -17.234375 C 1.585938 -17.785156 1.347656 -18.273438 1.109375 -18.703125 C 0.867188 -19.140625 0.664062 -19.570312 0.5 -20 C 0.332031 -20.425781 0.25 -20.90625 0.25 -21.4375 C 0.25 -22.019531 0.476562 -22.472656 0.9375 -22.796875 C 1.40625 -23.117188 2 -23.382812 2.71875 -23.59375 C 3.4375 -23.800781 4.171875 -24.003906 4.921875 -24.203125 C 5.210938 -24.285156 5.585938 -24.390625 6.046875 -24.515625 C 6.503906 -24.640625 6.96875 -24.765625 7.4375 -24.890625 C 7.914062 -25.015625 8.34375 -25.117188 8.71875 -25.203125 C 9.09375 -25.285156 9.363281 -25.328125 9.53125 -25.328125 C 9.945312 -25.328125 10.359375 -25.175781 10.765625 -24.875 C 11.171875 -24.570312 11.503906 -24.050781 11.765625 -23.3125 C 12.035156 -22.570312 12.171875 -21.539062 12.171875 -20.21875 C 12.171875 -19.332031 12.175781 -18.40625 12.1875 -17.4375 C 12.195312 -16.476562 12.203125 -15.566406 12.203125 -14.703125 C 12.203125 -13.835938 12.203125 -13.097656 12.203125 -12.484375 C 12.203125 -11.410156 12.3125 -10.375 12.53125 -9.375 C 12.757812 -8.382812 13.023438 -7.445312 13.328125 -6.5625 C 13.640625 -5.675781 13.90625 -4.867188 14.125 -4.140625 C 14.351562 -3.410156 14.46875 -2.769531 14.46875 -2.21875 C 14.46875 -1.625 14.34375 -1.171875 14.09375 -0.859375 C 13.84375 -0.554688 13.53125 -0.34375 13.15625 -0.21875 C 12.78125 -0.09375 12.40625 -0.0234375 12.03125 -0.015625 C 11.664062 -0.00390625 11.347656 0 11.078125 0 L 3.84375 0 C 3.570312 0 3.25 -0.00390625 2.875 -0.015625 C 2.507812 -0.0234375 2.140625 -0.09375 1.765625 -0.21875 C 1.390625 -0.34375 1.078125 -0.554688 0.828125 -0.859375 C 0.578125 -1.171875 0.453125 -1.625 0.453125 -2.21875 C 0.453125 -2.882812 0.5625 -3.578125 0.78125 -4.296875 C 1.007812 -5.023438 1.269531 -5.804688 1.5625 -6.640625 C 1.863281 -7.472656 2.125 -8.363281 2.34375 -9.3125 C 2.570312 -10.269531 2.6875 -11.328125 2.6875 -12.484375 Z M 7.390625 -26.828125 C 7.109375 -26.828125 6.703125 -26.929688 6.171875 -27.140625 C 5.648438 -27.359375 5.09375 -27.660156 4.5 -28.046875 C 3.914062 -28.429688 3.351562 -28.875 2.8125 -29.375 C 2.269531 -29.882812 1.828125 -30.441406 1.484375 -31.046875 C 1.140625 -31.660156 0.96875 -32.300781 0.96875 -32.96875 C 0.96875 -33.632812 1.113281 -34.210938 1.40625 -34.703125 C 1.695312 -35.203125 2.078125 -35.59375 2.546875 -35.875 C 3.015625 -36.164062 3.519531 -36.3125 4.0625 -36.3125 C 4.832031 -36.3125 5.488281 -36.09375 6.03125 -35.65625 C 6.570312 -35.226562 7.023438 -34.785156 7.390625 -34.328125 C 7.765625 -34.785156 8.222656 -35.226562 8.765625 -35.65625 C 9.304688 -36.09375 9.960938 -36.3125 10.734375 -36.3125 C 11.273438 -36.3125 11.78125 -36.164062 12.25 -35.875 C 12.726562 -35.59375 13.109375 -35.203125 13.390625 -34.703125 C 13.679688 -34.210938 13.828125 -33.632812 13.828125 -32.96875 C 13.828125 -32.300781 13.65625 -31.660156 13.3125 -31.046875 C 12.96875 -30.441406 12.523438 -29.882812 11.984375 -29.375 C 11.441406 -28.875 10.867188 -28.429688 10.265625 -28.046875 C 9.671875 -27.660156 9.113281 -27.359375 8.59375 -27.140625 C 8.082031 -26.929688 7.679688 -26.828125 7.390625 -26.828125 Z M 7.390625 -26.828125 "/></g></g></g></svg>